<svg version="1.1" id="ig" fill="currentColor" xmlns="http://www.w3.org/2000/svg" xmlns:xlink="http://www.w3.org/1999/xlink"
	 viewBox="0 0 30 30" style="enable-background:new 0 0 30 30;" xml:space="preserve">
<path d="M24.2,0H5.8C2.6,0,0,2.6,0,5.8v6.1v12.3C0,27.4,2.6,30,5.8,30h18.4c3.2,0,5.8-2.6,5.8-5.8V11.9V5.8C30,2.6,27.4,0,24.2,0z
	 M25.9,3.5l0.7,0v0.7v4.4l-5.1,0l0-5.1L25.9,3.5z M10.7,11.9c1-1.3,2.5-2.2,4.3-2.2c1.8,0,3.3,0.9,4.3,2.2c0.6,0.9,1,1.9,1,3.1
	c0,2.9-2.4,5.3-5.3,5.3c-2.9,0-5.3-2.4-5.3-5.3C9.7,13.8,10.1,12.8,10.7,11.9z M27.1,24.2c0,1.6-1.3,2.9-2.9,2.9H5.8
	c-1.6,0-2.9-1.3-2.9-2.9V11.9h4.5c-0.4,1-0.6,2-0.6,3.1c0,4.5,3.7,8.2,8.2,8.2c4.5,0,8.2-3.7,8.2-8.2c0-1.1-0.2-2.1-0.6-3.1h4.5
	V24.2z"/>
</svg>
