<svg id="logo" xmlns="http://www.w3.org/2000/svg" fill="none" viewBox="0 0 137 33"><g clip-path="url(#clip0)"><path fill="#007FE9" d="M38.214 31.008L25.029 0h7.73l13.638 31.008h-8.183z"/><path fill="#E90000" d="M0 31.008L13.639 0h7.729L8.183 31.008H0z"/><path fill="#007FE9" d="M23.19 30.919c3.707 0 6.712-2.928 6.712-6.54 0-3.613-3.005-6.541-6.713-6.541-3.707 0-6.712 2.928-6.712 6.54 0 3.613 3.005 6.541 6.712 6.541z"/><path fill="#000" d="M66.862 9.452h-4.999l-1.123 3.034h-1.622L63.674.862h1.377l4.564 11.624h-1.614l-1.14-3.034zm-4.524-1.261h4.057l-2.033-5.437-2.024 5.437zM74.54 11.44c.54 0 1.013-.16 1.417-.479.404-.319.628-.718.672-1.197h1.434c-.028.495-.202.966-.525 1.413a3.425 3.425 0 01-1.294 1.07 3.78 3.78 0 01-1.705.4c-1.207 0-2.168-.392-2.884-1.175-.71-.787-1.065-1.862-1.065-3.225v-.248c0-.84.158-1.588.475-2.243a3.567 3.567 0 011.36-1.525c.596-.362 1.297-.543 2.106-.543.994 0 1.82.29 2.475.87.66.58 1.013 1.334 1.057 2.26h-1.434c-.044-.56-.262-1.017-.656-1.374-.388-.361-.868-.542-1.442-.542-.77 0-1.368.271-1.794.814-.421.538-.631 1.317-.631 2.34v.279c0 .995.21 1.761.63 2.3.421.537 1.022.806 1.803.806zm11.816-6.395h-2.975v7.441h-1.516v-7.44h-2.917V3.847h7.408v1.197zm8.964 3.218c0 1.315-.309 2.374-.926 3.178-.617.803-1.453 1.205-2.507 1.205-1.077 0-1.923-.333-2.54-.998v4.16H87.83V3.848h1.384l.074.958c.617-.745 1.475-1.118 2.573-1.118 1.065 0 1.907.391 2.524 1.174.623.782.934 1.87.934 3.265v.136zm-1.516-.168c0-.974-.213-1.743-.64-2.307-.425-.564-1.01-.847-1.753-.847-.917 0-1.606.397-2.065 1.19v4.128c.454.788 1.148 1.181 2.082 1.181.726 0 1.303-.279 1.729-.838.431-.564.647-1.4.647-2.507zm8.924 4.391c-.088-.17-.159-.473-.213-.91-.705.713-1.546 1.07-2.524 1.07-.874 0-1.593-.24-2.155-.719A2.329 2.329 0 0197 10.091c0-.9.35-1.597 1.049-2.092.704-.5 1.693-.75 2.966-.75h1.475V6.57c0-.516-.158-.926-.475-1.23-.317-.308-.784-.462-1.401-.462-.541 0-.995.133-1.36.399-.367.266-.55.588-.55.966H97.18c0-.431.156-.846.467-1.246.317-.404.743-.724 1.279-.958a4.427 4.427 0 011.778-.351c1.021 0 1.821.25 2.401.75.579.495.879 1.18.901 2.052v3.976c0 .793.104 1.424.311 1.893v.127h-1.589zm-2.516-1.125c.475 0 .926-.12 1.352-.36.426-.24.735-.55.926-.934V8.295h-1.188c-1.857 0-2.786.53-2.786 1.589 0 .463.158.825.475 1.085.317.261.724.392 1.221.392zm13.439-7.513v8.638h-1.524V5.07h-3.016l-.18 3.234c-.099 1.485-.355 2.547-.77 3.185-.41.64-1.063.972-1.959.998h-.606v-1.301l.434-.032c.492-.053.844-.33 1.057-.83.213-.5.35-1.427.41-2.779l.164-3.696h5.99zM66.862 27.29h-4.999l-1.123 3.034h-1.622L63.674 18.7h1.377l4.564 11.625h-1.614l-1.14-3.034zm-4.524-1.261h4.057l-2.033-5.437-2.024 5.437zm11.407.615h-1.107v3.68h-1.524v-8.639h1.524v3.657h.992l2.983-3.656h1.835l-3.507 4.151 3.802 4.487h-1.925l-3.073-3.68zm11.775 3.68c-.087-.17-.159-.473-.213-.91-.705.714-1.546 1.07-2.524 1.07-.874 0-1.592-.24-2.155-.719a2.328 2.328 0 01-.836-1.836c0-.9.35-1.597 1.049-2.092.705-.5 1.693-.75 2.966-.75h1.475v-.679c0-.516-.158-.926-.475-1.23-.317-.308-.784-.462-1.401-.462-.541 0-.995.133-1.36.399-.367.266-.55.588-.55.966h-1.524c0-.431.156-.847.468-1.245.316-.405.742-.724 1.278-.959a4.426 4.426 0 011.778-.351c1.021 0 1.822.25 2.4.75.58.496.88 1.18.902 2.052v3.977c0 .792.104 1.423.311 1.892v.127h-1.59zm-2.516-1.126c.475 0 .926-.119 1.352-.359.426-.24.735-.55.926-.934v-1.772h-1.188c-1.857 0-2.786.53-2.786 1.589 0 .463.158.825.475 1.085.317.261.724.392 1.221.392zm6.096-.079l.525-.631c.59-.745.926-1.863 1.008-3.353l.14-3.45h5.71v7.434h1.14v3.744h-1.516v-2.539H89.92v2.54h-1.516l.008-3.745h.689zm1.795 0h4.073V23.05H92.24l-.09 2.06c-.093 1.719-.51 3.055-1.254 4.008zm12.087 1.365c-1.202 0-2.18-.383-2.934-1.15-.754-.771-1.13-1.801-1.13-3.09v-.27c0-.858.166-1.622.5-2.292a3.865 3.865 0 011.409-1.581 3.611 3.611 0 011.966-.575c1.153 0 2.049.37 2.688 1.11.639.74.959 1.799.959 3.178v.614h-6.007c.022.852.276 1.541.763 2.068.491.522 1.114.783 1.868.783.535 0 .988-.107 1.36-.32.371-.213.697-.495.975-.846l.926.702c-.743 1.113-1.857 1.669-3.343 1.669zm-.189-7.745a2.04 2.04 0 00-1.54.655c-.415.432-.672 1.038-.771 1.82h4.442v-.111c-.044-.75-.252-1.33-.623-1.74-.371-.416-.874-.624-1.508-.624zm10.513 5.629l3.016-6.682h1.893v8.638h-1.516v-6.283l-2.868 6.283h-1.049l-2.925-6.419v6.42h-1.516v-8.64h1.966l2.999 6.683zm13.086-6.682h1.517v8.638h-1.517v-6.299l-4.089 6.3h-1.515v-8.64h1.515v6.308l4.089-6.307zm10.727 0v8.638h-1.524v-3.36h-2.287l-2.089 3.36h-1.639l2.229-3.584c-.568-.203-1.005-.514-1.311-.934-.301-.426-.451-.922-.451-1.486 0-.787.304-1.42.91-1.9.606-.484 1.417-.73 2.433-.735h3.729zm-5.548 2.65c0 .42.148.762.443 1.022.295.256.685.386 1.172.392h2.409v-2.867h-2.18c-.563 0-1.011.136-1.344.407-.333.267-.5.615-.5 1.046z"/></g><defs><clipPath id="clip0"><path fill="#fff" d="M0 0h137v33H0z"/></clipPath></defs></svg>
