<svg version="1.1" id="vk" fill="currentColor" xmlns="http://www.w3.org/2000/svg" xmlns:xlink="http://www.w3.org/1999/xlink"
	 viewBox="0 0 30 30" style="enable-background:new 0 0 30 30;" xml:space="preserve">
<path d="M29.3,7.6c0.2-0.7,0-1.2-1-1.2H25c-0.8,0-1.2,0.4-1.4,0.9c0,0-1.7,3.9-4,6.5c-0.8,0.7-1.1,1-1.5,1c-0.2,0-0.5-0.2-0.5-0.9
	V7.6c0-0.8-0.2-1.2-0.9-1.2h-5.2c-0.5,0-0.8,0.4-0.8,0.7c0,0.8,1.2,0.9,1.3,3.1v4.6c0,1-0.2,1.2-0.6,1.2c-1.1,0-3.8-3.9-5.4-8.4
	C5.6,6.8,5.2,6.4,4.4,6.4H1.1C0.2,6.4,0,6.9,0,7.3c0,0.8,1.1,5,5.2,10.5c2.7,3.7,6.5,5.8,10,5.8c2.1,0,2.3-0.4,2.3-1.2
	c0-3.6-0.2-3.9,0.9-3.9c0.5,0,1.3,0.2,3.3,2c2.2,2.1,2.6,3.1,3.8,3.1h3.3c0.9,0,1.4-0.4,1.1-1.3c-0.6-1.9-4.8-5.7-5-6
	c-0.5-0.6-0.3-0.9,0-1.4C24.9,14.9,28.9,9.4,29.3,7.6z"/>
</svg>
